<svg width="18" height="18" viewBox="0 0 18 18" fill="none" xmlns="http://www.w3.org/2000/svg">
<path d="M7.36683 9.82832C7.25748 9.71987 7.17069 9.59083 7.11146 9.44866C7.05223 9.30649 7.02173 9.154 7.02173 8.99999C7.02173 8.84598 7.05223 8.69349 7.11146 8.55132C7.17069 8.40915 7.25748 8.28011 7.36683 8.17166L12.7218 2.82832C12.8312 2.71987 12.918 2.59083 12.9772 2.44866C13.0364 2.30649 13.0669 2.154 13.0669 1.99999C13.0669 1.84597 13.0364 1.69348 12.9772 1.55132C12.918 1.40915 12.8312 1.28011 12.7218 1.17166C12.5032 0.954363 12.2075 0.832397 11.8993 0.832397C11.5911 0.832397 11.2954 0.954363 11.0768 1.17166L5.72183 6.52666C5.06639 7.18291 4.69824 8.07249 4.69824 8.99999C4.69824 9.92749 5.06639 10.8171 5.72183 11.4733L11.0768 16.8283C11.2941 17.0439 11.5874 17.1654 11.8935 17.1667C12.047 17.1675 12.1992 17.1381 12.3414 17.0801C12.4835 17.022 12.6128 16.9364 12.7218 16.8283C12.8312 16.7199 12.918 16.5908 12.9772 16.4487C13.0364 16.3065 13.0669 16.154 13.0669 16C13.0669 15.846 13.0364 15.6935 12.9772 15.5513C12.918 15.4091 12.8312 15.2801 12.7218 15.1717L7.36683 9.82832Z" fill="current"/>
</svg>
