<svg width="13" height="13" viewBox="0 0 13 13" fill="none" xmlns="http://www.w3.org/2000/svg">
<g clip-path="url(#clip0_222_143)">
<path d="M6.5 0C5.21442 0 3.95772 0.381218 2.8888 1.09545C1.81988 1.80968 0.986756 2.82484 0.494786 4.01256C0.00281636 5.20028 -0.125905 6.50721 0.124899 7.76809C0.375703 9.02896 0.994768 10.1872 1.90381 11.0962C2.81285 12.0052 3.97104 12.6243 5.23192 12.8751C6.49279 13.1259 7.79973 12.9972 8.98745 12.5052C10.1752 12.0132 11.1903 11.1801 11.9046 10.1112C12.6188 9.04229 13 7.78558 13 6.5C12.9981 4.77667 12.3127 3.12445 11.0941 1.90586C9.87556 0.687282 8.22334 0.00186392 6.5 0V0ZM6.5 11.9167C5.42869 11.9167 4.38143 11.599 3.49066 11.0038C2.5999 10.4086 1.90563 9.56264 1.49566 8.57287C1.08568 7.5831 0.978413 6.49399 1.18742 5.44326C1.39642 4.39253 1.91231 3.42737 2.66984 2.66984C3.42738 1.9123 4.39253 1.39642 5.44326 1.18741C6.49399 0.97841 7.58311 1.08568 8.57287 1.49565C9.56264 1.90563 10.4086 2.5999 11.0038 3.49066C11.599 4.38143 11.9167 5.42868 11.9167 6.5C11.9151 7.93611 11.3439 9.31294 10.3284 10.3284C9.31294 11.3439 7.93611 11.9151 6.5 11.9167V11.9167Z" fill="white"/>
<path d="M6.49983 3.25C6.35617 3.25 6.21839 3.30707 6.11681 3.40865C6.01523 3.51023 5.95816 3.64801 5.95816 3.79167V6.13437L4.1322 7.27837C4.01009 7.35466 3.92329 7.47632 3.89088 7.61661C3.85848 7.75689 3.88313 7.90431 3.95941 8.02642C4.03569 8.14853 4.15736 8.23533 4.29765 8.26774C4.43793 8.30014 4.58534 8.27549 4.70745 8.19921L6.78745 6.89921C6.86604 6.84997 6.93067 6.78138 6.97515 6.7C7.01963 6.61863 7.04248 6.52719 7.0415 6.43446V3.79167C7.0415 3.64801 6.98443 3.51023 6.88284 3.40865C6.78126 3.30707 6.64349 3.25 6.49983 3.25Z" fill="white"/>
</g>
<defs>
<clipPath id="clip0_222_143">
<rect width="13" height="13" fill="white"/>
</clipPath>
</defs>
</svg>
