<svg width="20" height="20" viewBox="0 0 20 20" fill="none" xmlns="http://www.w3.org/2000/svg">
<path d="M6.0297 0.000120485C5.81687 -0.00085352 5.62061 0.114568 5.51786 0.300933C5.4151 0.487298 5.42225 0.714892 5.53637 0.894263L7.22502 3.56697C6.82209 3.83645 6.55343 4.2952 6.55343 4.81015C6.55343 5.05268 6.61885 5.27947 6.72389 5.4829C5.57147 6.46388 4.62681 7.80073 3.93864 9.18746C3.17987 10.7164 2.72729 12.2927 2.72729 13.5806C2.72729 17.0751 6.1734 19.7828 10.2726 19.7828C14.372 19.7828 17.8147 17.075 17.8147 13.5806C17.8147 12.2926 17.3621 10.7163 16.6033 9.18746C15.9155 7.8014 14.972 6.46488 13.8204 5.48406C13.9264 5.28033 13.992 5.05339 13.992 4.81019C13.992 4.29495 13.7215 3.83631 13.317 3.56701L15.0056 0.894304H15.0058C15.1196 0.71557 15.127 0.488948 15.0254 0.302928C14.9238 0.116887 14.729 0.000980846 14.517 0.000166301H10.2477C10.0743 0.001465 9.91051 0.0803616 9.8011 0.21494L9.28989 0.834244L8.78292 0.214774C8.67253 0.0790607 8.50695 0.000162078 8.3318 0L6.0297 0.000120485ZM7.08196 1.16488H8.05696L8.84333 2.11827C8.95372 2.2522 9.11833 2.3298 9.2922 2.3298C9.4659 2.3298 9.63051 2.2522 9.74108 2.11827L10.5229 1.16488H13.4604L12.099 3.31603H8.44333L7.08196 1.16488ZM8.04445 4.47966H12.4979C12.6897 4.47966 12.8285 4.61846 12.8285 4.81034C12.8285 5.00223 12.6897 5.13762 12.4979 5.13762H8.04445C7.85257 5.13762 7.71831 5.00223 7.71831 4.81034C7.71831 4.61846 7.85257 4.47966 8.04445 4.47966V4.47966ZM12.9068 6.23646C13.9604 7.08322 14.8996 8.36683 15.5647 9.70693C16.2608 11.1095 16.6511 12.5798 16.6511 13.5808C16.6511 16.2966 13.8643 18.6193 10.2727 18.6193C6.68121 18.6193 3.89102 16.2964 3.89102 13.5808C3.89102 12.5798 4.28582 11.1095 4.98193 9.70693C5.6467 8.36733 6.58567 7.08438 7.63876 6.23763C7.76863 6.27513 7.90337 6.30126 8.04444 6.30126H12.4978C12.6401 6.30126 12.7759 6.27464 12.9069 6.23649L12.9068 6.23646ZM10.2648 8.19557C10.1096 8.19703 9.96151 8.26034 9.85339 8.37155C9.74511 8.48275 9.68586 8.63242 9.68845 8.78763V9.2717C8.86248 9.38956 8.23279 10.1243 8.23279 10.9831C8.23279 11.9199 8.97988 12.7183 9.91686 12.7183H10.6248C10.9084 12.7183 11.1452 12.9488 11.1452 13.2888C11.1452 13.6287 10.9084 13.8604 10.6248 13.8604H8.93745C8.7808 13.8568 8.62949 13.9165 8.5175 14.0261C8.40565 14.1355 8.3425 14.2855 8.3425 14.4422C8.3425 14.5987 8.40565 14.7487 8.5175 14.8581C8.62952 14.9677 8.78081 15.0274 8.93745 15.024H9.68841V15.4843V15.4841C9.68841 15.8058 9.94929 16.0666 10.2709 16.0666C10.5925 16.0666 10.8534 15.8059 10.8534 15.4841V15C11.6795 14.8822 12.309 14.1474 12.309 13.2886C12.309 12.3518 11.5618 11.5534 10.625 11.5534L10.2727 11.5536H9.91686C9.63325 11.5536 9.39642 11.323 9.39642 10.9831C9.39642 10.6431 9.63327 10.4115 9.91686 10.4115H11.5443C11.7008 10.4149 11.8521 10.3552 11.9641 10.2456C12.076 10.1362 12.1391 9.98618 12.1391 9.82968C12.1391 9.67302 12.076 9.52302 11.9641 9.41359C11.8521 9.30402 11.7008 9.24428 11.5443 9.24785H10.8534V8.78763C10.8561 8.63032 10.7951 8.47854 10.6842 8.36701C10.5732 8.25549 10.4219 8.19364 10.2647 8.19559L10.2648 8.19557Z" fill="white"/>
</svg>
